<svg width="32" height="32" viewBox="0 0 32 32" fill="none" xmlns="http://www.w3.org/2000/svg">
<path fill-rule="evenodd" clip-rule="evenodd" d="M18.6103 24.0313C17.721 24.8807 16.5436 25.342 15.293 25.334H15.2916C14.0423 25.3233 12.873 24.842 11.9983 23.9793C10.1996 22.2073 10.2236 19.3433 12.053 17.598L14.937 14.8407C15.0556 14.7273 15.2156 14.666 15.3836 14.6673C15.5503 14.6687 15.7103 14.7327 15.8263 14.8473L18.665 17.6487C20.4636 19.422 20.4396 22.2847 18.6103 24.0313ZM22.4064 10.6487L16.2824 4.39402C15.773 3.87269 14.9237 3.87269 14.3957 4.37402C14.1104 4.64603 13.9584 5.03136 13.9837 5.42469C13.9957 5.61136 13.9957 5.79536 13.9957 5.99269C13.9957 9.40203 13.1384 11.418 12.665 11.9167C12.4637 11.6954 12.0984 11.114 11.7904 9.92603C11.6704 9.46203 11.3104 9.09803 10.8477 8.97269C10.3824 8.85003 9.88903 8.98203 9.5517 9.32203L8.2397 10.646C4.35837 14.602 4.3637 21.0474 8.25037 25.0087C10.1344 26.9367 12.645 27.998 15.321 28.0007H15.3317C18.0104 28.0007 20.5264 26.9394 22.4184 25.01C26.3077 21.0474 26.301 14.602 22.4064 10.6487Z" fill="#231F20"/>
<mask id="mask0_1473_13918" style="mask-type:alpha" maskUnits="userSpaceOnUse" x="5" y="4" width="21" height="25">
<path fill-rule="evenodd" clip-rule="evenodd" d="M18.6103 24.0313C17.721 24.8807 16.5436 25.342 15.293 25.334H15.2916C14.0423 25.3233 12.873 24.842 11.9983 23.9793C10.1996 22.2073 10.2236 19.3433 12.053 17.598L14.937 14.8407C15.0556 14.7273 15.2156 14.666 15.3836 14.6673C15.5503 14.6687 15.7103 14.7327 15.8263 14.8473L18.665 17.6487C20.4636 19.422 20.4396 22.2847 18.6103 24.0313ZM22.4064 10.6487L16.2824 4.39402C15.773 3.87269 14.9237 3.87269 14.3957 4.37402C14.1104 4.64603 13.9584 5.03136 13.9837 5.42469C13.9957 5.61136 13.9957 5.79536 13.9957 5.99269C13.9957 9.40203 13.1384 11.418 12.665 11.9167C12.4637 11.6954 12.0984 11.114 11.7904 9.92603C11.6704 9.46203 11.3104 9.09803 10.8477 8.97269C10.3824 8.85003 9.88903 8.98203 9.5517 9.32203L8.2397 10.646C4.35837 14.602 4.3637 21.0474 8.25037 25.0087C10.1344 26.9367 12.645 27.998 15.321 28.0007H15.3317C18.0104 28.0007 20.5264 26.9394 22.4184 25.01C26.3077 21.0474 26.301 14.602 22.4064 10.6487Z" fill="white"/>
</mask>
<g mask="url(#mask0_1473_13918)">
<rect width="32" height="32" fill="#BDBDBD"/>
</g>
</svg>
