<svg width="63" height="34" viewBox="0 0 63 34" fill="none" xmlns="http://www.w3.org/2000/svg">
<path d="M34.2075 28.1185C35.8537 29.3886 37.7657 29.9995 39.9007 29.9995H54.0824C54.9141 30.0076 55.7458 29.9111 56.5432 29.7021C59.004 29.0349 60.8303 27.6362 62.0221 25.5221C62.6994 24.3163 62.9995 23.0222 62.9995 21.6637C62.9995 19.437 62.9995 17.2184 62.9995 14.9998C62.9995 12.7812 62.9995 10.5545 62.9995 8.33588C63.0081 7.56419 62.8966 6.80054 62.6823 6.05296C62.2107 4.42115 61.2075 2.95815 59.8099 1.88904C58.1723 0.627 56.2774 0 54.151 0H39.8321C39.4634 0 39.0947 0.0160767 38.726 0.056269C35.9652 0.369769 33.5129 1.89708 32.1411 4.17196C31.378 5.44204 30.9836 6.88092 31.0007 8.34392C31.0007 12.7731 31.0007 17.2023 31.0007 21.6395C30.9921 22.2746 31.0607 22.9177 31.2065 23.5366C31.6609 25.3855 32.6555 26.9208 34.2075 28.1185ZM56.5946 4.4935C57.4778 4.4935 58.1894 5.16873 58.1894 6.00473C58.1894 6.01277 58.1894 6.02081 58.1894 6.02884C58.1723 6.84877 57.452 7.49988 56.5861 7.49185C55.7029 7.49185 54.9913 6.81661 54.9913 5.98865C54.9913 5.16069 55.7115 4.4935 56.5946 4.4935ZM46.9916 8.2555C47.0001 8.2555 47.0173 8.2555 47.0258 8.2555C50.9957 8.26354 54.2024 11.286 54.1939 15.0078C54.1853 18.7296 50.97 21.7521 47.0001 21.7521C43.0217 21.7521 39.7978 18.7377 39.7978 15.0078C39.7978 11.278 43.0131 8.2555 46.9916 8.2555Z" fill="#E0E0E0"/>
</svg>
