<svg width="31" height="23" viewBox="0 0 31 23" fill="none" xmlns="http://www.w3.org/2000/svg">
<path fill-rule="evenodd" clip-rule="evenodd" d="M22.4545 5.61364H26.6648L30.875 11.2273V18.2443H28.0682C28.0682 20.574 26.1876 22.4545 23.858 22.4545C21.5283 22.4545 19.6477 20.574 19.6477 18.2443H11.2273C11.2273 20.574 9.3467 22.4545 7.01705 22.4545C4.68739 22.4545 2.80682 20.574 2.80682 18.2443H0V2.80682C0 1.26307 1.26307 0 2.80682 0H22.4545V5.61364ZM5.61331 18.2442C5.61331 19.0161 6.24484 19.6476 7.01672 19.6476C7.78859 19.6476 8.42013 19.0161 8.42013 18.2442C8.42013 17.4724 7.78859 16.8408 7.01672 16.8408C6.24484 16.8408 5.61331 17.4724 5.61331 18.2442ZM25.9618 7.71875L28.7124 11.2273H22.4532V7.71875H25.9618ZM22.4532 18.2442C22.4532 19.0161 23.0848 19.6476 23.8567 19.6476C24.6285 19.6476 25.2601 19.0161 25.2601 18.2442C25.2601 17.4724 24.6285 16.8408 23.8567 16.8408C23.0848 16.8408 22.4532 17.4724 22.4532 18.2442Z" fill="#BDBDBD"/>
</svg>
