<svg width="24" height="24" viewBox="0 0 24 24" fill="none" xmlns="http://www.w3.org/2000/svg">
<path fill-rule="evenodd" clip-rule="evenodd" d="M2.66797 10.6664C2.66797 6.25445 6.25592 2.6665 10.6679 2.6665C15.0798 2.6665 18.6677 6.25445 18.6677 10.6664C18.6677 15.0783 15.0798 18.6663 10.6679 18.6663C6.25592 18.6663 2.66797 15.0783 2.66797 10.6664ZM23.609 21.7237L19.0824 17.1958C20.4864 15.3905 21.333 13.1278 21.333 10.6665C21.333 4.78527 16.5478 0 10.6665 0C4.78527 0 0 4.78527 0 10.6665C0 16.5478 4.78527 21.333 10.6665 21.333C13.1278 21.333 15.3905 20.4864 17.1958 19.0824L21.7237 23.609C21.9837 23.869 22.325 23.9997 22.6664 23.9997C23.0077 23.9997 23.349 23.869 23.609 23.609C24.1303 23.0877 24.1303 22.245 23.609 21.7237Z" fill="#BDBDBD"/>
</svg>
