<svg width="24" height="24" viewBox="0 0 24 24" fill="none" xmlns="http://www.w3.org/2000/svg">
<path fill-rule="evenodd" clip-rule="evenodd" d="M12.9854 3.0127H19.9854C20.5354 3.0127 20.9854 3.4627 20.9854 4.0127V9.0127C20.9854 9.5627 20.5354 10.0127 19.9854 10.0127H14.9854L11.9854 13.0127V4.0127C11.9854 3.4627 12.4354 3.0127 12.9854 3.0127ZM16.6754 14.9827L19.2154 15.2727C20.2254 15.3927 20.9854 16.2427 20.9754 17.2527V18.9827C20.9754 20.1127 20.0354 21.0527 18.9054 20.9827C10.3754 20.4527 3.54539 13.6327 3.01539 5.0927C2.94539 3.9627 3.88539 3.0227 5.01539 3.0227H6.74539C7.76539 3.0227 8.61539 3.7827 8.73539 4.7927L9.02539 7.3127C9.09539 7.9227 8.88539 8.5227 8.45539 8.9527L6.60539 10.8027C8.04539 13.6427 10.3654 15.9527 13.1954 17.3927L15.0354 15.5527C15.4654 15.1227 16.0654 14.9127 16.6754 14.9827Z" fill="#96D328"/>
</svg>
