<svg width="24" height="24" viewBox="0 0 24 24" fill="none" xmlns="http://www.w3.org/2000/svg">
<path fill-rule="evenodd" clip-rule="evenodd" d="M19.8512 10.1417C18.2612 11.7317 16.1112 12.2317 14.5812 11.5217L13.1112 12.9917L19.2912 19.1717C19.6812 19.5617 19.6812 20.1917 19.2912 20.5817C18.9012 20.9717 18.2712 20.9717 17.8812 20.5817L11.7012 14.4017L5.51117 20.5717C5.12117 20.9617 4.49117 20.9617 4.10117 20.5717C3.71117 20.1817 3.71117 19.5517 4.10117 19.1617L13.1612 10.1017C12.4512 8.57166 12.9512 6.42166 14.5412 4.83166C16.4612 2.92166 19.2012 2.56166 20.6612 4.02166C22.1312 5.49166 21.7612 8.23166 19.8512 10.1417ZM10.6312 10.5017L7.80117 13.3317L3.61117 9.15166C2.38117 7.91166 2.12117 6.08166 2.83117 4.59166C3.13117 3.97166 3.96117 3.84166 4.44117 4.32166L10.6312 10.5017Z" fill="#96D328"/>
</svg>
