<svg width="26" height="25" viewBox="0 0 26 25" fill="none" xmlns="http://www.w3.org/2000/svg">
<path fill-rule="evenodd" clip-rule="evenodd" d="M4.86056 1.77153C5.97165 0.027468 8.28621 -0.485658 10.0303 0.625434C10.8368 1.13922 11.8319 2.20784 12.5174 3.30088L12.5174 3.3009L12.5174 3.30088C13.2028 2.20784 14.198 1.13922 15.0045 0.625434C16.7486 -0.485658 19.0631 0.0274681 20.1742 1.77153C21.2853 3.5156 20.7722 5.83016 19.0281 6.94125C18.8675 7.04359 18.6837 7.14342 18.4823 7.23892H24.0298C24.5821 7.23892 25.0298 7.68664 25.0298 8.23892V10.676C25.0298 11.2283 24.5821 11.676 24.0298 11.676H23.8921V11.8H13.4142V7.23892H11.6142V11.8H1.13772V11.676H1C0.447715 11.676 0 11.2283 0 10.676V8.23892C0 7.68664 0.447714 7.23892 0.999999 7.23892H6.55246C6.35105 7.14342 6.1673 7.04359 6.00666 6.94125C4.26259 5.83016 3.74946 3.5156 4.86056 1.77153ZM1.13772 13.6V22.3047C1.13772 23.4093 2.03315 24.3047 3.13772 24.3047H11.6142V13.6H1.13772ZM13.4142 24.3047H21.8921C22.9967 24.3047 23.8921 23.4093 23.8921 22.3047V13.6H13.4142V24.3047ZM13.4172 5.85083C13.4179 5.97157 13.4445 6.03033 13.4574 6.05061C13.4792 6.08486 13.584 6.20083 13.955 6.27365C14.3118 6.3437 14.7882 6.34581 15.33 6.2784C16.4306 6.14149 17.5426 5.75339 18.061 5.42315C18.9666 4.84619 19.2331 3.64431 18.6561 2.73867C18.0792 1.83303 16.8773 1.56658 15.9716 2.14354C15.4533 2.47378 14.6316 3.31758 14.0424 4.25717C13.7523 4.71976 13.5528 5.15244 13.4655 5.50541C13.4297 5.65043 13.4175 5.76063 13.4172 5.84299L13.4172 5.85083ZM11.6176 5.84293C11.6173 5.76057 11.6051 5.65039 11.5692 5.50541C11.4819 5.15244 11.2825 4.71976 10.9924 4.25717C10.4032 3.31758 9.58151 2.47378 9.06314 2.14354C8.1575 1.56658 6.95562 1.83303 6.37866 2.73867C5.8017 3.64431 6.06816 4.84619 6.9738 5.42315C7.49217 5.75339 8.60417 6.14149 9.70474 6.2784C10.2466 6.34581 10.723 6.3437 11.0798 6.27365C11.4507 6.20083 11.5555 6.08486 11.5774 6.05061C11.5906 6.02989 11.618 5.96902 11.6176 5.84293Z" fill="#BDBDBD"/>
</svg>
