<svg width="65" height="34" viewBox="0 0 65 34" fill="none" xmlns="http://www.w3.org/2000/svg">
<path d="M42 0C37.5817 0 34 3.58172 34 8V22C34 26.4183 37.5817 30 42 30H57C61.4183 30 65 26.4183 65 22V8C65 3.58172 61.4183 0 57 0H42ZM56.612 16.7172L59.3043 19.711C59.6484 20.0937 59.3675 20.6907 58.8432 20.6907H55.805C55.3249 20.6907 54.8625 20.5148 54.5109 20.1984L53.6112 19.3888C52.5959 18.5291 52.1644 18.2342 51.7582 18.2342C51.3521 18.2342 51.2506 18.529 51.2506 19.2905C51.2506 20.0519 51.0983 20.6907 48.7631 20.6907C46.4279 20.6907 44.6003 18.9958 42.5444 16.3675C40.555 13.8244 39.6351 11.0972 39.5775 10.9231C39.5755 10.9171 39.5736 10.9113 39.5718 10.9052C39.4659 10.5546 39.7376 10.202 40.1169 10.202H42.5482C43.0106 10.202 43.4318 10.4606 43.6257 10.8669C43.8248 11.2839 44.1671 11.9273 44.7527 12.8794C45.5837 14.2304 46.382 14.839 46.8342 15.0981C47.0026 15.1946 47.2149 15.0754 47.2149 14.886V11.6455C47.2149 11.2214 47.0566 10.8117 46.7691 10.4918L46.4263 10.1104C46.3377 10.0117 46.4101 9.85808 46.5451 9.85808H50.3877C50.9764 9.85808 51.4537 10.3199 51.4537 10.8897V14.6582C51.4537 14.901 51.7793 14.996 51.9179 14.7937L54.6835 10.7602C54.9016 10.4422 55.2698 10.251 55.664 10.251H58.9104C59.3541 10.251 59.6239 10.7238 59.3877 11.0873L56.515 15.5058C56.2678 15.8862 56.3072 16.3782 56.612 16.7172Z" fill="#96D328"/>
</svg>
